HIERARCHY
ROOT Hips
{
	OFFSET -3.958830 18.904000 13.208200
	CHANNELS 6 Xposition Yposition Zposition Zrotation Yrotation Xrotation 
	JOINT LHipJoint
	{
		OFFSET 0.000000 0.000000 0.000000
		CHANNELS 3 Zrotation Yrotation Xrotation
		JOINT LeftUpLeg
		{
			OFFSET 1.800000 -1.400000 0.085000
			CHANNELS 3 Zrotation Yrotation Xrotation
			JOINT LeftLeg
			{
				OFFSET 2.215000 -6.000000 0.000000
				CHANNELS 3 Zrotation Yrotation Xrotation
				JOINT LeftFoot
				{
					OFFSET 2.500000 -6.900000 0.000000
					CHANNELS 3 Zrotation Yrotation Xrotation
					JOINT LeftToeBase
					{
						OFFSET 0.200000 -0.500000 1.950000
						CHANNELS 3 Zrotation Yrotation Xrotation
						End Site
						{
							OFFSET 0.000000 0.000000 0.000000
						}
					}
				}
			}
		}
	}
	JOINT RHipJoint
	{
		OFFSET 0.000000 0.000000 0.000000
		CHANNELS 3 Zrotation Yrotation Xrotation
		JOINT RightUpLeg
		{
			OFFSET -1.800000 -1.400000 0.085000
			CHANNELS 3 Zrotation Yrotation Xrotation
			JOINT RightLeg
			{
				OFFSET -2.215000 -6.000000 0.000000
				CHANNELS 3 Zrotation Yrotation Xrotation
				JOINT RightFoot
				{
					OFFSET -2.500000 -6.900000 0.000000
					CHANNELS 3 Zrotation Yrotation Xrotation
					JOINT RightToeBase
					{
						OFFSET -0.200000 -0.500000 1.950000
						CHANNELS 3 Zrotation Yrotation Xrotation
						End Site
						{
							OFFSET 0.000000 0.000000 0.000000
						}
					}
				}
			}
		}
	}
	JOINT LowerBack
	{
		OFFSET 0.000000 0.000000 0.000000
		CHANNELS 3 Zrotation Yrotation Xrotation
		JOINT Spine
		{
			OFFSET -0.087000 1.940000 -0.288900
			CHANNELS 3 Zrotation Yrotation Xrotation
			JOINT Spine1
			{
				OFFSET 0.000000 1.950000 0.060000
				CHANNELS 3 Zrotation Yrotation Xrotation
				JOINT Neck
				{
					OFFSET 0.000000 0.000000 0.000000
					CHANNELS 3 Zrotation Yrotation Xrotation
					JOINT Neck1
					{
						OFFSET 0.000000 1.600000 0.340000
						CHANNELS 3 Zrotation Yrotation Xrotation
						JOINT Head
						{
							OFFSET 0.000000 1.667000 -0.240000
							CHANNELS 3 Zrotation Yrotation Xrotation
							End Site
							{
								OFFSET 0.000000 0.000000 0.000000
							}
						}
					}
				}
				JOINT LeftShoulder
				{
					OFFSET 0.000000 0.000000 0.000000
					CHANNELS 3 Zrotation Yrotation Xrotation
					JOINT LeftArm
					{
						OFFSET 2.700000 1.550000 -0.730000
						CHANNELS 3 Zrotation Yrotation Xrotation
						JOINT LeftForeArm
						{
							OFFSET 5.450000 0.000000 0.000000
							CHANNELS 3 Zrotation Yrotation Xrotation
							JOINT LeftHand
							{
								OFFSET 3.450000 0.000000 0.000000
								CHANNELS 3 Zrotation Yrotation Xrotation
								JOINT LeftHandIndex1
								{
									OFFSET 0.750000 0.000000 0.000000
									CHANNELS 3 Zrotation Yrotation Xrotation
									End Site
									{
										OFFSET 0.000000 0.000000 0.000000
									}
								}
							}
						}
					}
				}
				JOINT RightShoulder
				{
					OFFSET 0.000000 0.000000 0.000000
					CHANNELS 3 Zrotation Yrotation Xrotation
					JOINT RightArm
					{
						OFFSET -2.700000 1.550000 -0.730000
						CHANNELS 3 Zrotation Yrotation Xrotation
						JOINT RightForeArm
						{
							OFFSET -5.450000 0.000000 0.000000
							CHANNELS 3 Zrotation Yrotation Xrotation
							JOINT RightHand
							{
								OFFSET -3.450000 0.000000 0.000000
								CHANNELS 3 Zrotation Yrotation Xrotation
								JOINT RightHandIndex1
								{
									OFFSET -0.750000 0.000000 0.000000
									CHANNELS 3 Zrotation Yrotation Xrotation
									End Site
									{
										OFFSET 0.000000 0.000000 0.000000
									}
								}
							}
						}
					}
				}
			}
		}
	}
}
MOTION
Frames: 4
Frame Time: 0.016667
14.902900 16.837570 6.741420 6.169588 -5.036594 2.293743 -15.311133 13.660062 3.538715 10.039095 -0.041535 5.754318 -13.733763 7.495585 5.853787 0.295547 5.892923 2.844713 0.518000 0.160430 0.445280 17.954997 -10.251528 3.656336 -1.574016 6.002539 -28.110551 13.200423 -9.734667 31.940326 -0.512372 -5.228558 2.520220 0.068410 0.182830 0.427210 -2.777740 -2.429678 -8.841205 12.515039 -5.300119 10.289299 -5.945819 -1.777336 -13.550366 7.175284 1.270902 -15.517366 1.787168 -12.029496 29.128561 -13.645500 -6.632210 -2.715230 -4.285784 -1.859030 0.570357 -12.194601 0.325245 -0.581515 10.848629 -8.751395 -0.369833 -4.078051 2.881339 0.317770 0.195870 0.017460 0.313460 -12.862672 9.953234 14.766114 32.956128 -4.975975 -2.797621 -10.520753 5.552871 -0.344636 2.538871 -1.740387 -0.017770 -0.074150 -0.258560 -0.071230 
14.761880 16.987610 6.849960 7.067861 -5.001260 2.921866 -15.304892 13.732476 3.628453 8.059424 0.068144 3.879705 -14.153510 7.252459 5.397046 0.325404 5.657867 2.924797 0.409380 0.058180 0.342840 17.921962 -10.414689 3.548684 -1.081047 5.236870 -26.952109 11.767156 -8.616698 29.238714 -0.374594 -4.675162 2.739964 -0.020970 0.243190 0.463630 -2.723813 -2.437423 -8.857039 10.811004 -5.381227 9.174892 -5.150991 -1.885635 -15.946210 6.792824 1.265233 -15.619346 1.420275 -11.148273 31.178202 -13.625200 -6.154700 -0.178900 -2.431677 -1.464558 0.754939 -13.056906 -0.370535 -0.529338 9.745145 -8.245778 -0.287556 -4.168494 2.869151 0.250570 0.247480 -0.012030 0.296490 -13.642243 9.286999 14.384541 33.246344 -5.399975 -3.153526 -10.635854 6.339427 -0.260970 2.549483 -1.706893 0.018190 -0.096590 -0.186860 -0.033630 
14.605320 17.190570 6.981020 6.363783 -6.102236 2.213581 -15.271352 13.861068 3.776966 6.940252 0.090371 3.434901 -13.805729 6.771063 3.951696 0.256761 5.450907 3.002050 0.440380 0.052590 0.416850 17.932828 -10.526969 3.378342 1.159421 4.221154 -23.233099 9.135669 -6.899545 25.168464 -0.271337 -3.856194 3.051254 -0.015360 0.179290 0.388360 -2.764074 -2.662081 -8.892729 12.411186 -6.137943 8.708382 -5.635609 -2.340453 -15.041219 6.879064 1.126272 -15.995993 0.904687 -10.640671 33.840139 -13.295030 -6.214880 -0.917940 -2.157849 -1.727848 1.226864 -14.824227 0.779650 -0.795210 11.361431 -6.654213 -0.267203 -4.071708 2.816787 0.351440 0.161180 0.018270 0.292140 -14.139725 9.746793 14.392692 32.322515 -2.927101 -2.079653 -9.410403 4.705054 -0.108956 2.605450 -1.622472 -0.039900 -0.059970 -0.232300 -0.077070 
14.441160 17.355780 7.124200 6.882803 -6.577220 1.946661 -15.241212 13.895997 3.895234 4.456612 0.418014 2.938790 -13.063531 6.205783 2.507174 0.279982 5.175325 3.107157 0.371370 -0.022070 0.341810 17.942007 -10.694610 3.260488 1.506462 3.134141 -20.481211 7.245728 -5.657896 20.788404 -0.166754 -3.303260 3.299125 -0.087470 0.220150 0.402140 -2.805736 -2.606642 -8.924221 12.043366 -5.993884 7.325174 -5.547981 -2.416050 -14.320635 6.569250 0.791014 -17.090272 0.044955 -9.986225 36.642720 -12.856130 -6.606310 1.112970 -0.186835 -2.791201 2.089770 -17.643212 0.648290 -0.836878 12.251490 -4.905402 -0.186132 -4.122698 2.820748 0.320180 0.179460 0.000160 0.291010 -15.310214 11.077357 14.845312 32.987333 -2.497103 -1.776833 -9.602405 0.942271 0.345568 2.709344 -1.543300 -0.013330 -0.062190 -0.186070 -0.046060 
